<svg width="18" height="18" viewBox="0 0 18 18" fill="none" xmlns="http://www.w3.org/2000/svg">
<path d="M3.462 3.75L4.587 6H6.837L5.712 3.75H7.212L8.337 6H10.587L9.462 3.75H10.962L12.087 6H14.337L13.212 3.75H14.5387C14.8837 3.75 15.172 3.86575 15.4035 4.09725C15.635 4.32875 15.7505 4.617 15.75 4.962V13.0388C15.75 13.3838 15.6345 13.672 15.4035 13.9035C15.1725 14.135 14.8843 14.2505 14.5387 14.25H3.46125C3.11625 14.25 2.82825 14.1345 2.59725 13.9035C2.36625 13.6725 2.2505 13.384 2.25 13.038V4.962C2.25 4.6165 2.36575 4.32825 2.59725 4.09725C2.82875 3.86625 3.11675 3.7505 3.46125 3.75M3 6.75V13.0388C3 13.1733 3.04325 13.2838 3.12975 13.3703C3.21625 13.4568 3.327 13.5 3.462 13.5H14.5387C14.6733 13.5 14.7837 13.4568 14.8702 13.3703C14.9567 13.2838 15 13.1733 15 13.0388V6.75H3Z" fill="black"/>
</svg>
