<svg width="21" height="21" viewBox="0 0 21 21" fill="none" xmlns="http://www.w3.org/2000/svg">
<circle cx="10.5" cy="10.5" r="10" stroke="#6A6A6A"/>
<rect x="19.2932" y="10.0224" width="12.4135" height="12.4135" transform="rotate(133.182 19.2932 10.0224)" stroke="#6A6A6A"/>
<path d="M13.4075 7.8369L7.67055 13.95C7.59447 14.031 7.48931 14.0786 7.3782 14.0821C7.26708 14.0856 7.15912 14.0448 7.07805 13.9688C6.99699 13.8927 6.94946 13.7875 6.94594 13.6764C6.94241 13.5653 6.98317 13.4573 7.05924 13.3763L12.7962 7.26321C12.8723 7.18215 12.9774 7.13462 13.0885 7.1311C13.1997 7.12757 13.3076 7.16833 13.3887 7.2444C13.4697 7.32048 13.5173 7.42564 13.5208 7.53676C13.5243 7.64787 13.4836 7.75584 13.4075 7.8369Z" fill="#797979"/>
<path d="M12.983 7.67645L8.06945 7.833C7.95819 7.83653 7.85009 7.79572 7.76892 7.71955C7.68776 7.64338 7.64018 7.53808 7.63664 7.42682C7.63311 7.31557 7.67392 7.20747 7.75009 7.1263C7.82627 7.04513 7.93156 6.99755 8.04282 6.99402L13.3753 6.82476C13.4304 6.82294 13.4853 6.83202 13.5369 6.85146C13.5885 6.8709 13.6358 6.90032 13.676 6.93805C13.7162 6.97578 13.7486 7.02108 13.7712 7.07133C13.7939 7.12159 13.8064 7.17583 13.8081 7.23094L13.9774 12.5634C13.9809 12.6747 13.9401 12.7828 13.8639 12.864C13.7878 12.9451 13.6825 12.9927 13.5712 12.9962C13.4599 12.9998 13.3518 12.959 13.2707 12.8828C13.1895 12.8066 13.1419 12.7013 13.1384 12.5901L12.983 7.67645Z" fill="#797979"/>
</svg>
