<svg width="13" height="17" viewBox="0 0 13 17" fill="none" xmlns="http://www.w3.org/2000/svg">
<path fill-rule="evenodd" clip-rule="evenodd" d="M8.93926 0.49469C11.5194 0.49469 12.9997 1.77185 12.9997 3.9968V15.0539C12.9997 15.5179 12.7608 15.9355 12.3592 16.169C11.9591 16.4033 11.4768 16.4078 11.0722 16.1796L6.53859 13.6185L1.96318 16.185C1.76541 16.296 1.54862 16.3523 1.33107 16.3523C1.10667 16.3523 0.882276 16.2922 0.678417 16.172C0.277546 15.9385 0.0386963 15.5209 0.0386963 15.0577V3.8576C0.0386963 1.72012 1.51971 0.49469 4.10218 0.49469H8.93926ZM8.93926 1.63569H4.10218C2.16324 1.63569 1.1797 2.38266 1.1797 3.8576V15.0577C1.1797 15.1292 1.22077 15.168 1.255 15.1877C1.28923 15.209 1.34324 15.2242 1.40561 15.1893L6.26019 12.4661C6.43362 12.3695 6.64585 12.3687 6.82004 12.4668L11.6328 15.1854C11.6959 15.222 11.7499 15.2052 11.7842 15.1847C11.8184 15.1641 11.8587 15.1254 11.8587 15.0539L11.8584 3.91012C11.8527 3.25543 11.726 1.63569 8.93926 1.63569ZM9.27304 5.61284C9.58795 5.61284 9.84354 5.86842 9.84354 6.18334C9.84354 6.49825 9.58795 6.75384 9.27304 6.75384H3.70648C3.39156 6.75384 3.13598 6.49825 3.13598 6.18334C3.13598 5.86842 3.39156 5.61284 3.70648 5.61284H9.27304Z" fill="#79869F"/>
</svg>
