<svg width="20" height="20" viewBox="0 0 20 20" fill="none" xmlns="http://www.w3.org/2000/svg">
<path d="M17 11C17 12.9467 16.32 14.6 14.96 15.96C13.6 17.32 11.9467 18 10 18C8.05267 18 6.39933 17.32 5.04 15.96C3.68067 14.6 3.00067 12.9467 3 11C3 10.1687 3.13067 9.38133 3.392 8.638C3.65333 7.89467 4.03167 7.21967 4.527 6.613C4.617 6.499 4.728 6.43567 4.86 6.423C4.992 6.40967 5.113 6.45833 5.223 6.569C5.32967 6.67567 5.38167 6.799 5.379 6.939C5.37633 7.079 5.33 7.208 5.24 7.326C4.848 7.83933 4.54333 8.40133 4.326 9.012C4.10867 9.62267 4 10.2853 4 11C4 12.6667 4.58333 14.0833 5.75 15.25C6.91667 16.4167 8.33333 17 10 17C11.6667 17 13.0833 16.4167 14.25 15.25C15.4167 14.0833 16 12.6667 16 11C16 10.2853 15.8913 9.62267 15.674 9.012C15.4567 8.40133 15.152 7.83933 14.76 7.326C14.67 7.20867 14.6237 7.07967 14.621 6.939C14.6183 6.799 14.6703 6.67567 14.777 6.569C14.887 6.45833 15.008 6.40967 15.14 6.423C15.272 6.43567 15.383 6.499 15.473 6.613C15.9677 7.21967 16.346 7.89467 16.608 8.638C16.8693 9.38133 17 10.1687 17 11ZM10.5 3.992V11.384C10.5 11.5267 10.4523 11.6457 10.357 11.741C10.261 11.8363 10.142 11.884 10 11.884C9.858 11.884 9.739 11.8363 9.643 11.741C9.54767 11.6457 9.5 11.5267 9.5 11.384V3.992L7.754 5.738C7.66067 5.83133 7.546 5.88133 7.41 5.888C7.274 5.89467 7.15267 5.84467 7.046 5.738C6.93933 5.63133 6.886 5.51333 6.886 5.384C6.886 5.25467 6.93933 5.13667 7.046 5.03L9.435 2.642C9.59633 2.48067 9.78467 2.4 10 2.4C10.2153 2.4 10.4037 2.48067 10.565 2.642L12.954 5.03C13.0473 5.12333 13.0973 5.23833 13.104 5.375C13.1107 5.51033 13.0607 5.63133 12.954 5.738C12.8473 5.84467 12.7293 5.898 12.6 5.898C12.4707 5.898 12.3527 5.84467 12.246 5.738L10.5 3.992Z" fill="black"/>
</svg>
