<svg width="20" height="20" viewBox="0 0 20 20" fill="none" xmlns="http://www.w3.org/2000/svg">
<path d="M17 9C17 7.05333 16.32 5.4 14.96 4.04C13.6 2.68 11.9467 2 10 2C8.05267 2 6.39933 2.68 5.04 4.04C3.68067 5.4 3.00067 7.05333 3 9C3 9.83133 3.13067 10.6187 3.392 11.362C3.65333 12.1053 4.03167 12.7803 4.527 13.387C4.617 13.501 4.728 13.5643 4.86 13.577C4.992 13.5903 5.113 13.5417 5.223 13.431C5.32967 13.3243 5.38167 13.201 5.379 13.061C5.37633 12.921 5.33 12.792 5.24 12.674C4.848 12.1607 4.54333 11.5987 4.326 10.988C4.10867 10.3773 4 9.71467 4 9C4 7.33333 4.58333 5.91667 5.75 4.75C6.91667 3.58333 8.33333 3 10 3C11.6667 3 13.0833 3.58333 14.25 4.75C15.4167 5.91667 16 7.33333 16 9C16 9.71467 15.8913 10.3773 15.674 10.988C15.4567 11.5987 15.152 12.1607 14.76 12.674C14.67 12.7913 14.6237 12.9203 14.621 13.061C14.6183 13.201 14.6703 13.3243 14.777 13.431C14.887 13.5417 15.008 13.5903 15.14 13.577C15.272 13.5643 15.383 13.501 15.473 13.387C15.9677 12.7803 16.346 12.1053 16.608 11.362C16.8693 10.6187 17 9.83133 17 9ZM10.5 16.008V8.616C10.5 8.47333 10.4523 8.35433 10.357 8.259C10.261 8.16367 10.142 8.116 10 8.116C9.858 8.116 9.739 8.16367 9.643 8.259C9.54767 8.35433 9.5 8.47333 9.5 8.616V16.008L7.754 14.262C7.66067 14.1687 7.546 14.1187 7.41 14.112C7.274 14.1053 7.15267 14.1553 7.046 14.262C6.93933 14.3687 6.886 14.4867 6.886 14.616C6.886 14.7453 6.93933 14.8633 7.046 14.97L9.435 17.358C9.59633 17.5193 9.78467 17.6 10 17.6C10.2153 17.6 10.4037 17.5193 10.565 17.358L12.954 14.97C13.0473 14.8767 13.0973 14.7617 13.104 14.625C13.1107 14.4897 13.0607 14.3687 12.954 14.262C12.8473 14.1553 12.7293 14.102 12.6 14.102C12.4707 14.102 12.3527 14.1553 12.246 14.262L10.5 16.008Z" fill="black"/>
</svg>
