<svg width="17" height="17" viewBox="0 0 17 17" fill="none" xmlns="http://www.w3.org/2000/svg">
<path fill-rule="evenodd" clip-rule="evenodd" d="M8.74804 0.493744C10.9545 0.493744 13.028 1.35158 14.5855 2.90982C17.8049 6.12921 17.8049 11.3669 14.5855 14.5863C13.0073 16.1652 10.8823 17.0008 8.72961 17.0008C7.55613 17.0008 6.37497 16.7527 5.26984 16.2413C4.94421 16.1107 4.63932 15.9878 4.42045 15.9878C4.16855 15.9894 3.82987 16.1061 3.50271 16.219C2.83149 16.4494 1.99592 16.7366 1.37769 16.1207C0.76177 15.504 1.04592 14.6707 1.27478 14.0003C1.38768 13.6701 1.50364 13.3291 1.50364 13.071C1.50364 12.8591 1.4015 12.5887 1.24483 12.1994C-0.193602 9.09286 0.471472 5.34894 2.91136 2.91059C4.46883 1.35235 6.54162 0.493744 8.74804 0.493744ZM8.74881 1.64572C6.84958 1.64572 5.06556 2.38452 3.72542 3.72542C1.62575 5.82356 1.05437 9.04525 2.30235 11.7432C2.48206 12.1878 2.65562 12.621 2.65562 13.071C2.65562 13.5203 2.50126 13.9726 2.36532 14.372C2.2532 14.7007 2.08347 15.1968 2.19253 15.3059C2.29928 15.4164 2.79847 15.2421 3.12793 15.1292C3.52344 14.9941 3.97195 14.8389 4.41661 14.8359C4.86204 14.8359 5.28213 15.0048 5.72679 15.1837C8.45083 16.4432 11.6725 15.8703 13.7714 13.7722C16.5408 11.0013 16.5408 6.49401 13.7714 3.72465C12.4305 2.38375 10.6473 1.64572 8.74881 1.64572ZM11.78 8.29854C12.2039 8.29854 12.5479 8.64183 12.5479 9.06652C12.5479 9.49122 12.2039 9.83451 11.78 9.83451C11.356 9.83451 11.0089 9.49122 11.0089 9.06652C11.0089 8.64183 11.3491 8.29854 11.7731 8.29854H11.78ZM8.70127 8.29854C9.1252 8.29854 9.46925 8.64183 9.46925 9.06652C9.46925 9.49122 9.1252 9.83451 8.70127 9.83451C8.27734 9.83451 7.93021 9.49122 7.93021 9.06652C7.93021 8.64183 8.26966 8.29854 8.69436 8.29854H8.70127ZM5.62227 8.29854C6.04619 8.29854 6.39025 8.64183 6.39025 9.06652C6.39025 9.49122 6.04619 9.83451 5.62227 9.83451C5.19834 9.83451 4.85121 9.49122 4.85121 9.06652C4.85121 8.64183 5.19143 8.29854 5.61536 8.29854H5.62227Z" fill="#79869F"/>
</svg>
