<svg width="24" height="24" viewBox="0 0 24 24" fill="none" xmlns="http://www.w3.org/2000/svg">
<path d="M12.1832 18.9976C11.9882 18.8764 4.4043 14.132 4.4043 8.79893C4.4043 6.43156 6.32343 4.51242 8.6908 4.51242C10.126 4.51242 11.3965 5.21776 12.1745 6.30071C12.9524 5.21776 14.2229 4.51242 15.6581 4.51242C18.0255 4.51242 19.9446 6.43156 19.9446 8.79893C19.9446 14.1285 12.3932 18.8672 12.1875 18.9954C12.1872 18.9985 12.187 19 12.187 19C12.187 19 12.1854 18.999 12.1832 18.9976Z" stroke="#79869F" stroke-width="1.5" stroke-linecap="round" stroke-linejoin="round"/>
<path d="M7.05872 9.501C7.05872 8.2136 8.10236 7.16995 9.38976 7.16995" stroke="#79869F" stroke-width="1.5" stroke-linecap="round" stroke-linejoin="round"/>
</svg>
