<svg width="14" height="14" viewBox="0 0 14 14" fill="none" xmlns="http://www.w3.org/2000/svg">
<path d="M7 14C3.1339 14 0 10.8661 0 7C0 3.1339 3.1339 0 7 0C10.8661 0 14 3.1339 14 7C14 10.8661 10.8661 14 7 14ZM9.8882 8.2222C10.0373 8.1151 10.1661 7.9786 10.2662 7.8197C10.6904 7.1442 10.5217 6.2307 9.8882 5.7778L7.049 3.7492C6.82512 3.58789 6.55634 3.50075 6.2804 3.5C5.5181 3.5 4.9 4.1587 4.9 4.9714V9.0286C4.9 9.3205 4.9812 9.6054 5.1338 9.8476C5.5587 10.5231 6.4162 10.703 7.0497 10.2508L9.8882 8.2222ZM6.2482 4.991L9.0867 7.0196L6.2475 9.0475V4.991H6.2482Z" fill="#D2D8DA"/>
</svg>
