<svg width="38" height="38" viewBox="0 0 38 38" fill="none" xmlns="http://www.w3.org/2000/svg">
<ellipse cx="18.8733" cy="19" rx="18.8733" ry="19" fill="#F2F2F2"/>
<path d="M10.9268 13.5999H12.6927H26.82" stroke="#454545" stroke-width="1.6" stroke-linecap="round" stroke-linejoin="round"/>
<path d="M25.8538 13.6001C25.8538 13.1583 25.4956 12.8001 25.0538 12.8001C24.612 12.8001 24.2538 13.1583 24.2538 13.6001H25.8538ZM13.4924 13.6001C13.4924 13.1583 13.1342 12.8001 12.6924 12.8001C12.2506 12.8001 11.8924 13.1583 11.8924 13.6001H13.4924ZM14.5415 13.6C14.5415 14.0418 14.8996 14.4 15.3415 14.4C15.7833 14.4 16.1415 14.0418 16.1415 13.6H14.5415ZM21.6051 13.6C21.6051 14.0418 21.9633 14.4 22.4051 14.4C22.847 14.4 23.2051 14.0418 23.2051 13.6H21.6051ZM24.2538 13.6001V26.2001H25.8538V13.6001H24.2538ZM24.2538 26.2001C24.2538 26.7669 23.807 27.2001 23.2879 27.2001V28.8001C24.7194 28.8001 25.8538 27.6216 25.8538 26.2001H24.2538ZM23.2879 27.2001H14.4583V28.8001H23.2879V27.2001ZM14.4583 27.2001C13.9392 27.2001 13.4924 26.7669 13.4924 26.2001H11.8924C11.8924 27.6216 13.0268 28.8001 14.4583 28.8001V27.2001ZM13.4924 26.2001V13.6001H11.8924V26.2001H13.4924ZM16.1415 13.6V11.8H14.5415V13.6H16.1415ZM16.1415 11.8C16.1415 11.2332 16.5883 10.8 17.1074 10.8V9.2C15.6759 9.2 14.5415 10.3785 14.5415 11.8H16.1415ZM17.1074 10.8H20.6392V9.2H17.1074V10.8ZM20.6392 10.8C21.1583 10.8 21.6051 11.2332 21.6051 11.8H23.2051C23.2051 10.3785 22.0707 9.2 20.6392 9.2V10.8ZM21.6051 11.8V13.6H23.2051V11.8H21.6051Z" fill="#454545"/>
</svg>
