<svg width="24" height="24" viewBox="0 0 24 24" fill="none" xmlns="http://www.w3.org/2000/svg">
<g clip-path="url(#clip0_247_876)">
<path d="M20.9998 5.17991V16.9999C20.9996 17.8804 20.7089 18.7362 20.1728 19.4347C19.6366 20.1331 18.885 20.6351 18.0345 20.8629C17.1839 21.0906 16.282 21.0314 15.4686 20.6943C14.6552 20.3572 13.9757 19.7612 13.5355 18.9986C13.0954 18.236 12.9191 17.3495 13.0341 16.4766C13.1491 15.6036 13.5489 14.793 14.1716 14.1704C14.7942 13.5479 15.6049 13.1481 16.4779 13.0332C17.3508 12.9183 18.2373 13.0947 18.9998 13.5349V9.18091L8.99985 10.8469V17.9999C8.99985 18.0599 8.99485 18.1169 8.98485 18.1739C9.05664 18.9429 8.87207 19.714 8.4599 20.3672C8.04772 21.0203 7.43109 21.5188 6.70607 21.7849C5.98105 22.051 5.18836 22.0699 4.45151 21.8385C3.71466 21.6072 3.07502 21.1386 2.63226 20.5058C2.1895 19.873 1.96848 19.1115 2.00363 18.34C2.03878 17.5684 2.32813 16.8302 2.8266 16.2403C3.32507 15.6504 4.00467 15.2419 4.75951 15.0785C5.51435 14.9151 6.30203 15.0059 6.99985 15.3369V6.84691C6.99979 6.37347 7.16768 5.91536 7.47366 5.55409C7.77964 5.19281 8.20386 4.95179 8.67085 4.87391L18.6708 3.20791C18.9573 3.16014 19.2507 3.17532 19.5307 3.25241C19.8107 3.3295 20.0706 3.46665 20.2922 3.65431C20.5139 3.84198 20.692 4.07566 20.8142 4.33912C20.9364 4.60258 20.9997 4.88949 20.9998 5.17991ZM5.49985 16.9999C5.10202 16.9999 4.72049 17.1579 4.43919 17.4393C4.15788 17.7206 3.99985 18.1021 3.99985 18.4999C3.99985 18.8977 4.15788 19.2793 4.43919 19.5606C4.72049 19.8419 5.10202 19.9999 5.49985 19.9999C5.89767 19.9999 6.2792 19.8419 6.56051 19.5606C6.84181 19.2793 6.99985 18.8977 6.99985 18.4999C6.99985 18.1021 6.84181 17.7206 6.56051 17.4393C6.2792 17.1579 5.89767 16.9999 5.49985 16.9999ZM16.9998 14.9999C16.4694 14.9999 15.9607 15.2106 15.5856 15.5857C15.2106 15.9608 14.9998 16.4695 14.9998 16.9999C14.9998 17.5303 15.2106 18.0391 15.5856 18.4141C15.9607 18.7892 16.4694 18.9999 16.9998 18.9999C17.5303 18.9999 18.039 18.7892 18.4141 18.4141C18.7891 18.0391 18.9998 17.5303 18.9998 16.9999C18.9998 16.4695 18.7891 15.9608 18.4141 15.5857C18.039 15.2106 17.5303 14.9999 16.9998 14.9999ZM18.9998 5.17991L8.99985 6.84691V8.81991L18.9998 7.15291V5.17991Z" fill="white"/>
</g>
<defs>
<clipPath id="clip0_247_876">
<rect width="24" height="24" fill="white"/>
</clipPath>
</defs>
</svg>
