<svg width="15" height="15" viewBox="0 0 15 15" fill="none" xmlns="http://www.w3.org/2000/svg">
<path d="M14.7499 1.88493V10.7499C14.7497 11.4103 14.5317 12.0522 14.1296 12.576C13.7275 13.0998 13.1638 13.4764 12.5259 13.6472C11.888 13.818 11.2115 13.7735 10.6014 13.5207C9.99138 13.2679 9.48176 12.8209 9.15164 12.249C8.82152 11.677 8.68933 11.0121 8.77558 10.3574C8.86184 9.70271 9.1617 9.09475 9.62868 8.62782C10.0957 8.16089 10.7037 7.86109 11.3584 7.77491C12.0131 7.68874 12.678 7.821 13.2499 8.15118V4.88568L5.74989 6.13518V11.4999C5.74989 11.5449 5.74614 11.5877 5.73864 11.6304C5.79248 12.2072 5.65405 12.7855 5.34492 13.2754C5.03579 13.7652 4.57331 14.1391 4.02955 14.3387C3.48579 14.5383 2.89127 14.5524 2.33863 14.3789C1.78599 14.2054 1.30627 13.8539 0.974197 13.3793C0.642125 12.9047 0.476358 12.3336 0.502722 11.755C0.529085 11.1763 0.746099 10.6227 1.11995 10.1802C1.49381 9.73778 2.0035 9.43142 2.56963 9.30887C3.13576 9.18632 3.72652 9.25446 4.24989 9.50268V3.13518C4.24984 2.7801 4.37576 2.43652 4.60525 2.16557C4.83473 1.89461 5.15289 1.71384 5.50313 1.65543L13.0031 0.405932C13.218 0.370102 13.4381 0.381492 13.6481 0.43931C13.8581 0.497127 14.0529 0.599986 14.2192 0.740736C14.3854 0.881485 14.519 1.05675 14.6106 1.25434C14.7023 1.45194 14.7498 1.66712 14.7499 1.88493ZM3.12489 10.7499C2.82652 10.7499 2.54037 10.8685 2.32939 11.0794C2.11841 11.2904 1.99989 11.5766 1.99989 11.8749C1.99989 12.1733 2.11841 12.4595 2.32939 12.6704C2.54037 12.8814 2.82652 12.9999 3.12489 12.9999C3.42325 12.9999 3.7094 12.8814 3.92038 12.6704C4.13136 12.4595 4.24989 12.1733 4.24989 11.8749C4.24989 11.5766 4.13136 11.2904 3.92038 11.0794C3.7094 10.8685 3.42325 10.7499 3.12489 10.7499ZM11.7499 9.24993C11.3521 9.24993 10.9705 9.40797 10.6892 9.68927C10.4079 9.97058 10.2499 10.3521 10.2499 10.7499C10.2499 11.1478 10.4079 11.5293 10.6892 11.8106C10.9705 12.0919 11.3521 12.2499 11.7499 12.2499C12.1477 12.2499 12.5292 12.0919 12.8105 11.8106C13.0919 11.5293 13.2499 11.1478 13.2499 10.7499C13.2499 10.3521 13.0919 9.97058 12.8105 9.68927C12.5292 9.40797 12.1477 9.24993 11.7499 9.24993ZM13.2499 1.88493L5.74989 3.13518V4.61493L13.2499 3.36468V1.88493Z" fill="black"/>
</svg>
