<svg width="309" height="78" viewBox="0 0 309 78" fill="none" xmlns="http://www.w3.org/2000/svg">
<path d="M2.35549 27.1914V50.8084" stroke="#E1E1E1" stroke-width="3" stroke-linecap="square"/>
<path d="M9.11745 23.2554V54.7447" stroke="#E1E1E1" stroke-width="3" stroke-linecap="square"/>
<path d="M15.8794 31.1274V46.8721" stroke="#E1E1E1" stroke-width="3" stroke-linecap="square"/>
<path d="M22.6414 28.7661V49.2342" stroke="#E1E1E1" stroke-width="3" stroke-linecap="square"/>
<path d="M29.4033 27.9785V50.0211" stroke="#E1E1E1" stroke-width="3" stroke-linecap="square"/>
<path d="M36.1653 26.4043V51.5958" stroke="#E1E1E1" stroke-width="3" stroke-linecap="square"/>
<path d="M42.9275 23.2554V54.7447" stroke="#E1E1E1" stroke-width="3" stroke-linecap="square"/>
<path d="M49.6897 16.9575V61.0426" stroke="#E1E1E1" stroke-width="3" stroke-linecap="square"/>
<path d="M56.4514 4.36182V73.6384" stroke="#E1E1E1" stroke-width="3" stroke-linecap="square"/>
<path d="M63.2134 13.8086V64.1916" stroke="#E1E1E1" stroke-width="3" stroke-linecap="square"/>
<path d="M69.9756 27.1914V50.8084" stroke="#E1E1E1" stroke-width="3" stroke-linecap="square"/>
<path d="M76.7376 24.0425V53.9574" stroke="#E1E1E1" stroke-width="3" stroke-linecap="square"/>
<path d="M83.4995 22.4683V55.5321" stroke="#E1E1E1" stroke-width="3" stroke-linecap="square"/>
<path d="M90.2615 11.4468V66.5532" stroke="#E1E1E1" stroke-width="3" stroke-linecap="square"/>
<path d="M97.0235 2V76" stroke="#E1E1E1" stroke-width="3" stroke-linecap="square"/>
<path d="M103.785 27.1914V50.8084" stroke="#E1E1E1" stroke-width="3" stroke-linecap="square"/>
<path d="M110.548 24.0425V53.9574" stroke="#E1E1E1" stroke-width="3" stroke-linecap="square"/>
<path d="M117.309 11.6807V66.319" stroke="#E1E1E1" stroke-width="3" stroke-linecap="square"/>
<path d="M124.072 19.3193V58.681" stroke="#E1E1E1" stroke-width="3" stroke-linecap="square"/>
<path d="M130.834 3.57471V74.4258" stroke="white" stroke-width="3" stroke-linecap="square"/>
<path d="M137.595 26.4043V51.5958" stroke="white" stroke-width="3" stroke-linecap="square"/>
<path d="M144.358 24.8296V53.17" stroke="white" stroke-width="3" stroke-linecap="square"/>
<path d="M151.119 14.0425V63.9574" stroke="white" stroke-width="3" stroke-linecap="square"/>
<path d="M157.881 26.6807V51.319" stroke="white" stroke-width="3" stroke-linecap="square"/>
<path d="M164.643 11.4468V66.5532" stroke="white" stroke-width="3" stroke-linecap="square"/>
<path d="M171.405 25.6172V52.3831" stroke="#E1E1E1" stroke-width="3" stroke-linecap="square"/>
<path d="M178.167 24.0425V53.9574" stroke="#E1E1E1" stroke-width="3" stroke-linecap="square"/>
<path d="M184.929 14.5957V63.4042" stroke="#E1E1E1" stroke-width="3" stroke-linecap="square"/>
<path d="M191.691 3.57471V74.4258" stroke="#E1E1E1" stroke-width="3" stroke-linecap="square"/>
<path d="M198.453 23.2554V54.7447" stroke="#E1E1E1" stroke-width="3" stroke-linecap="square"/>
<path d="M205.216 20.8936V57.1063" stroke="#E1E1E1" stroke-width="3" stroke-linecap="square"/>
<path d="M211.977 27.7446V50.2553" stroke="#E1E1E1" stroke-width="3" stroke-linecap="square"/>
<path d="M218.739 15.3828V62.6169" stroke="#E1E1E1" stroke-width="3" stroke-linecap="square"/>
<path d="M225.501 2V76" stroke="#E1E1E1" stroke-width="3" stroke-linecap="square"/>
<path d="M232.263 27.1914V50.8084" stroke="#E1E1E1" stroke-width="3" stroke-linecap="square"/>
<path d="M239.025 24.0425V53.9574" stroke="#E1E1E1" stroke-width="3" stroke-linecap="square"/>
<path d="M245.787 11.6807V66.319" stroke="#E1E1E1" stroke-width="3" stroke-linecap="square"/>
<path d="M252.549 19.3193V58.681" stroke="#E1E1E1" stroke-width="3" stroke-linecap="square"/>
<path d="M259.311 3.57471V58.6811" stroke="#E1E1E1" stroke-width="3" stroke-linecap="square"/>
<path d="M266.073 31.1274V46.8721" stroke="#E1E1E1" stroke-width="3" stroke-linecap="square"/>
<path d="M272.835 28.7661V49.2342" stroke="#E1E1E1" stroke-width="3" stroke-linecap="square"/>
<path d="M279.597 17.9785V60.0211" stroke="#E1E1E1" stroke-width="3" stroke-linecap="square"/>
<path d="M286.359 26.4043V51.5958" stroke="#E1E1E1" stroke-width="3" stroke-linecap="square"/>
<path d="M293.121 11.4468V66.5532" stroke="#E1E1E1" stroke-width="3" stroke-linecap="square"/>
<path d="M299.883 29.5532V51.5958" stroke="#E1E1E1" stroke-width="3" stroke-linecap="square"/>
<path d="M306.645 27.9785V53.17" stroke="#E1E1E1" stroke-width="3" stroke-linecap="square"/>
</svg>
